<svg width="48" height="48" viewBox="0 0 48 48" fill="none" xmlns="http://www.w3.org/2000/svg">
<rect width="48" height="48" fill="white"/>
<path d="M23.3735 21.089L23.011 20.6195L21.3633 13.859L21.4621 13.4521L32.2384 16.1751L32.8975 18.4286L32.7987 18.7729L26.9986 17.7088L23.3735 21.089Z" fill="#7AD026"/>
<path d="M25.2854 27.0979L19.5512 26.0338L19.1887 25.8147L17.0137 17.0511L20.5399 13.7021L20.9024 13.9838L22.8138 21.9337L28.9104 23.0917L29.207 23.3108L25.2854 27.0979Z" fill="#7AD026"/>
<path d="M18.4302 25.784L13.9483 24.9702L12.7949 21.1831L12.8608 20.9327L16.3211 17.709L16.6177 17.8029L17.0132 19.2426L18.595 25.5023L18.4302 25.784Z" fill="#7AD026"/>
<path d="M34.1182 23.5305L23.968 21.7152L23.8691 21.3709L27.0658 18.335L32.8659 19.3365L33.1625 19.493L33.3602 20.0564L34.217 23.1236L34.1182 23.5305Z" fill="#7AD026"/>
<path d="M30.2956 31.4178L29.9661 31.3552L25.9785 27.5681V27.1925L30.0979 23.3428L34.448 24.1565L35.2059 26.7543L30.2956 31.4178Z" fill="#7AD026"/>
<path d="M21.0668 32.9823L15.761 31.6364L14.1133 25.8775L14.2781 25.5332L18.8918 26.4096L23.3407 30.6349V30.8227L21.0668 32.9823Z" fill="#7AD026"/>
<path d="M26.9326 34.5473L21.8245 33.1389L24.1973 30.6976L20.8359 27.5677L20.3086 27.0043L20.4075 26.7227L25.2848 27.599L29.6678 31.7617L29.7337 31.9495L29.2064 32.5129L26.9326 34.5473Z" fill="#7AD026"/>
</svg>
