<svg width="359" height="357" viewBox="0 0 359 357" fill="none" xmlns="http://www.w3.org/2000/svg">
<path d="M170 132.5L164.5 125L139.5 17L141 10.5L304.5 54L314.5 90L313 95.5L225 78.5L170 132.5Z" fill="#7AD026"/>
<path d="M199 228.5L112 211.5L106.5 208L73.5 68L127 14.5L132.5 19L161.5 146L254 164.5L258.5 168L199 228.5Z" fill="#7AD026"/>
<path d="M95 207.5L27 194.5L9.5 134L10.5 130L63 78.5L67.5 80L73.5 103L97.5 203L95 207.5Z" fill="#7AD026"/>
<path d="M333 171.5L179 142.5L177.5 137L226 88.5L314 104.5L318.5 107L321.5 116L334.5 165L333 171.5Z" fill="#7AD026"/>
<path d="M275 297.5L270 296.5L209.5 236V230L272 168.5L338 181.5L349.5 223L275 297.5Z" fill="#7AD026"/>
<path d="M135 322.5L54.5 301L29.5 209L32 203.5L102 217.5L169.5 285V288L135 322.5Z" fill="#7AD026"/>
<path d="M224 347.5L146.5 325L182.5 286L131.5 236L123.5 227L125 222.5L199 236.5L265.5 303L266.5 306L258.5 315L224 347.5Z" fill="#7AD026"/>
</svg>
