<svg width="300" height="60" viewBox="0 0 300 60" fill="none" xmlns="http://www.w3.org/2000/svg">
<path fill-rule="evenodd" clip-rule="evenodd" d="M0.26106 0.134626C0.09292 0.246116 -0.00815 0.529376 0.03626 0.763686C0.09654 1.08162 0.34671 1.20648 1.02155 1.25566C1.51918 1.29192 2.40137 1.47547 2.98216 1.66355C4.87479 2.27675 4.75877 0.888544 4.75877 22.933C4.75877 44.1206 4.80794 43.3225 3.46642 43.8768C2.99349 44.0722 0.58464 44.5716 0.05665 44.5838C0.0256 44.5845 0 44.7871 0 45.0341C0 45.3162 0.19783 45.5326 0.53208 45.6165C0.82486 45.6899 5.89794 45.7083 11.8058 45.6568C21.0111 45.5771 22.7907 45.507 24.2471 45.1671C31.3499 43.5102 36.231 39.746 38.8132 33.9346C39.7312 31.8684 39.8477 31.5335 40.3678 29.4654C41.0866 26.6081 41.0895 20.2375 40.3737 17.3702C39.4865 13.8165 38.4391 11.4653 36.6867 9.0929C33.3733 4.60719 29.1255 2.00459 22.7741 0.568116C20.9277 0.150476 19.7795 0.098586 10.6506 0.019266C4.92057 -0.030584 0.43465 0.019286 0.26106 0.134626ZM151.261 0.606196C143.536 1.62594 138.843 6.1538 139.187 12.2548C139.319 14.597 140.155 16.515 141.855 18.3696C144.119 20.8414 146.376 22.3248 153.282 25.8807C155.89 27.2234 158.337 28.513 158.721 28.7469C159.105 28.9807 159.572 29.242 159.759 29.3277C160.373 29.6087 163.48 31.9346 164.362 32.7732C165.847 34.1852 166.205 34.9636 166.198 36.7622C166.19 38.75 165.615 40.1176 164.216 41.4768C160.2 45.3806 151.495 45.6457 146.729 42.0093C144.797 40.5353 142.941 38.1441 141.711 35.5449C140.923 33.8798 139.817 30.8013 139.817 30.274C139.817 30.044 139.611 29.6495 139.359 29.3972C138.983 29.0211 138.815 28.9846 138.424 29.194C138.001 29.4203 137.963 29.5806 138.093 30.6155C138.173 31.257 138.392 33.3624 138.578 35.2943C139.149 41.2081 139.19 41.3936 140.067 42.122C140.967 42.8682 143.448 44.2176 144.846 44.7209C148.053 45.8757 149.05 46.0187 153.98 46.0307C158.534 46.0416 158.832 46.0151 160.892 45.4125C166.035 43.9085 169.509 41.2885 170.712 38.0061C171.221 36.6195 171.217 33.4998 170.706 32.1292C169.34 28.4711 166.418 25.9845 158.668 21.884C156.955 20.9774 154.736 19.7879 152.281 18.4584C146.673 15.4228 144.699 13.4954 144.149 10.5162C143.479 6.89322 145.8 3.69124 150.003 2.43946C152.09 1.8181 156.102 1.8045 158.101 2.41227C162.767 3.83152 165.825 7.53158 167.578 13.8798C167.785 14.6276 168.033 15.3924 168.13 15.5793C168.383 16.0681 169.085 15.9979 169.264 15.466C169.452 14.9106 168.892 6.48442 168.595 5.37676C168.272 4.17664 165.401 2.38417 162.252 1.41678C161.566 1.20626 160.699 0.934326 160.325 0.812416C159.435 0.522586 153.003 0.376186 151.261 0.606196ZM20.848 1.8496C24.8671 2.56908 28.2986 4.82633 30.8688 8.44118C34.195 13.1195 35.6922 21.042 34.466 27.4767C33.0603 34.8535 29.5189 39.9504 23.9403 42.6264C21.327 43.8798 20.4643 44.0187 15.2961 44.0187H10.5373L10.4795 23.0821C10.4371 7.80079 10.4906 2.06216 10.6771 1.83759C11.0263 1.41678 18.479 1.42562 20.848 1.8496ZM55.4653 13.2933C49.9436 14.7157 46.0998 18.7698 44.2738 25.0969C43.6609 27.2207 43.703 32.2765 44.3522 34.5011C45.2632 37.6233 46.464 39.7156 48.5635 41.8396C50.1638 43.4585 51.8491 44.4757 54.2881 45.2954C56.0024 45.8714 56.5383 45.9448 59.0315 45.9448C61.5142 45.9448 62.0642 45.8703 63.7445 45.3056C66.9168 44.2396 69.3317 42.388 71.177 39.6068C71.9663 38.4176 71.9475 37.927 71.1095 37.8298C70.625 37.7738 70.428 37.9007 70.1423 38.4534C69.4432 39.8051 67.1903 41.8419 65.5639 42.5926C63.5634 43.5158 60.3748 43.7445 58.4303 43.1041C54.1426 41.6921 51.3782 37.9322 50.1888 31.8951C50.0045 30.9604 49.8538 29.5618 49.8538 28.7872C49.8538 27.6268 49.9309 27.3376 50.2921 27.1443C50.5756 26.9927 54.3341 26.9098 60.9347 26.9098C72.6982 26.9098 71.7471 27.1196 71.4822 24.582C70.9821 19.7911 68.6159 15.9075 65.1252 14.1481C62.5858 12.8682 58.5137 12.5079 55.4653 13.2933ZM86.6777 13.2358C82.3864 14.2634 78.8316 17.1923 76.6897 21.465C72.4922 29.838 75.6144 40.8115 83.2296 44.4506C85.635 45.6002 87.2548 45.9448 90.2506 45.9448C93.8516 45.9448 96.1923 45.1939 98.9893 43.1406C100.881 41.7519 103.075 38.8468 102.79 38.1065C102.506 37.3668 101.641 37.791 100.651 39.1545C98.588 41.9957 96.3031 43.2439 92.8747 43.4021C91.2033 43.4793 90.4013 43.4107 89.4756 43.1113C84.7184 41.5733 81.4464 36.4067 80.9775 29.693C80.8701 28.1547 80.9077 27.5123 81.1199 27.2569C81.3707 26.9544 82.7392 26.9098 91.7587 26.9098C99.5073 26.9098 102.178 26.8413 102.382 26.6378C103.168 25.8517 102.047 20.8038 100.501 18.1652C99.1089 15.7899 96.4304 13.8918 93.5185 13.2174C91.6485 12.7846 88.5275 12.793 86.6777 13.2358ZM119.69 13.3024C118.143 13.8295 116.235 15.1461 115.107 16.4665C114.234 17.4878 112.61 20.4913 112.225 21.797C112.118 22.163 111.913 22.5013 111.77 22.5489C111.579 22.6128 111.547 21.4322 111.649 18.009C111.743 14.846 111.711 13.3357 111.546 13.2339C111.154 12.9915 110.591 13.325 110.45 13.8832C110.107 15.2508 108.444 15.9877 105.261 16.1823C102.676 16.3405 101.913 16.6827 102.762 17.3034C102.999 17.477 103.414 17.6188 103.683 17.6188C104.486 17.6188 105.594 18.0908 105.831 18.5341C105.97 18.7949 106.053 25.8701 106.053 37.6084C106.053 58.1094 106.137 56.8683 104.691 57.6165C104.33 57.8028 103.642 57.9551 103.161 57.9551C102.112 57.9551 101.387 58.4126 101.591 58.9451C101.722 59.2862 102.404 59.3156 108.933 59.2613C115.772 59.2044 116.135 59.1801 116.213 58.7754C116.319 58.2213 115.885 57.9628 114.841 57.9585C113.52 57.953 112.471 57.3364 112.068 56.3269C111.6 55.1587 111.54 42.7723 112.002 42.7723C112.158 42.7723 112.795 43.1381 113.418 43.585C114.67 44.4835 115.796 45.0373 117.48 45.583C118.985 46.0704 122.884 46.0686 124.6 45.5796C130.818 43.8066 134.698 37.5479 134.698 29.2891C134.698 19.6943 129.631 12.8111 122.617 12.8759C121.59 12.8854 120.409 13.0574 119.69 13.3024ZM186.499 13.3167C182.893 13.9124 179.65 16.0085 177.214 19.3184C174.768 22.6411 173.437 27.9136 174.025 31.9468C175.047 38.9574 178.63 43.5557 184.686 45.6292C186.258 46.1674 191.953 46.2433 193.41 45.7452C198.983 43.8401 203.527 39.8296 210.643 30.5355C217.132 22.0594 219.646 19.2751 222.651 17.2388C224.9 15.7146 225.829 15.3285 227.296 15.3076C228.891 15.2852 229.61 15.68 230.172 16.8869C230.526 17.646 230.578 18.9785 230.683 29.969L230.801 42.2058L231.341 43.3026C231.954 44.5496 233.242 45.5943 234.631 45.9718C236.853 46.5757 240.093 45.8508 241.511 44.4327C242.028 43.9153 242.046 43.8363 241.716 43.5061C241.416 43.2072 241.266 43.1929 240.836 43.4238C238.294 44.791 237.807 44.8324 237.092 43.7422C236.727 43.1863 236.681 42.0839 236.567 31.1124C236.428 17.8543 236.447 18.0353 234.933 15.7729C233.597 13.7751 231.374 12.9056 228.272 13.1671C225.853 13.371 223.287 14.4302 220.943 16.1914C219.561 17.2297 215.855 20.9067 214.993 22.0943C214.609 22.6241 214.108 23.0574 213.88 23.0574C213.491 23.0574 213.465 22.7599 213.462 18.3553C213.46 15.7588 213.361 13.5009 213.241 13.3133C212.954 12.8632 212.248 13.2781 212.147 13.9557C212.042 14.6609 210.596 15.7516 209.245 16.1443C208.559 16.3435 207.161 16.4858 205.888 16.4858C204.15 16.4858 203.68 16.5553 203.575 16.8286C203.35 17.414 203.939 17.8454 204.962 17.8454C205.583 17.8454 206.191 18.0272 206.69 18.3621C207.76 19.0807 207.978 20.3266 208.004 25.89C208.022 29.9064 207.977 30.4995 207.61 31.102C206.489 32.9391 200.671 39.2248 198.477 40.969C197.809 41.4997 196.498 42.2989 195.563 42.7454C193.926 43.5267 193.772 43.5562 191.371 43.5467C189.018 43.5374 188.794 43.495 187.374 42.7914C183.032 40.6384 180.601 36.3666 180.041 29.9087C179.796 27.0768 178.637 27.363 190.355 27.363C197.592 27.363 200.694 27.2871 201.104 27.0999C201.625 26.8624 201.681 26.7106 201.681 25.532C201.681 22.6427 200.225 18.7378 198.399 16.7335C197.266 15.4896 195.469 14.3205 193.789 13.7347C192.297 13.2145 188.452 12.994 186.499 13.3167ZM251.755 13.2985C247.254 14.129 244.362 16.7044 243.867 20.322C243.202 25.1823 245.711 28.1928 253.143 31.4526C261.081 34.9342 263.36 36.8402 263.035 39.7263C262.802 41.7934 261.104 43.6661 258.824 44.3715C257.378 44.8188 254.206 44.7692 252.804 44.2772C250.099 43.328 247.85 40.9706 246.12 37.27C245.749 36.4769 245.374 35.5295 245.286 35.1646C244.978 33.8847 244.517 33.2219 243.987 33.2974C243.526 33.3631 243.491 33.4886 243.497 35.0676C243.501 36.0024 243.623 38.0929 243.769 39.7131C244.028 42.591 244.05 42.6726 244.735 43.2502C245.632 44.0064 247.498 44.919 249.441 45.5519C250.789 45.9911 251.448 46.0484 255.048 46.0407C259.055 46.0321 259.16 46.0194 260.995 45.3248C262.961 44.5804 263.848 44.0581 265.1 42.9062C267.863 40.3637 268.394 36.2131 266.365 33.0282C265.255 31.2864 262.88 29.5085 259.527 27.9102C258.373 27.36 257.371 26.9097 257.301 26.9097C257.231 26.9097 255.727 26.2088 253.958 25.3522C249.096 22.9973 247.683 21.6676 247.683 19.4468C247.683 17.5485 248.711 16.1399 250.794 15.1866C251.873 14.6926 252.251 14.64 254.207 14.7134C256.094 14.7841 256.596 14.8909 257.736 15.4635C260.228 16.716 262.296 19.6036 263.876 24.0388C264.529 25.8705 264.681 26.1166 265.158 26.1166H265.698L265.641 23.3973C265.61 21.9017 265.477 19.7604 265.347 18.639C265.151 16.9607 265.008 16.4948 264.54 16.0065C263.791 15.2242 261.775 14.2475 259.806 13.713C258.026 13.2294 253.416 12.9922 251.755 13.2985ZM282.354 13.3289C276.735 14.3223 272.205 18.7296 270.492 24.8703C269.798 27.3571 269.633 29.79 269.992 32.2405C270.365 34.7842 270.756 36.1697 271.546 37.7419C273.499 41.6305 276.04 43.9167 280.201 45.5308C281.415 46.0017 281.937 46.0582 285.073 46.0582C288.836 46.0582 289.465 45.9211 292.31 44.4794C294.559 43.34 297.894 39.6202 297.726 38.4391C297.591 37.4876 296.948 37.683 296.001 38.9633C294.639 40.8033 293.31 41.9799 291.667 42.8009C290.23 43.5186 290.066 43.5478 287.453 43.5564C285.104 43.5643 284.584 43.4964 283.634 43.0583C279.883 41.3273 277.635 38.1504 276.378 32.8016C276.087 31.5652 275.863 28.6798 275.978 27.6462C276.002 27.4244 278.219 27.363 286.221 27.363C298.215 27.363 297.877 27.4267 297.63 25.2102C297.208 21.4261 295.761 18.1047 293.705 16.2012C292.238 14.8436 291.535 14.4198 289.605 13.7314C288.135 13.2065 284.261 12.9917 282.354 13.3289ZM61.0533 14.7642C62.301 15.2854 63.6162 16.6516 64.3121 18.1488C65.1043 19.8538 65.7746 22.6586 65.6761 23.8567C65.6124 24.6303 65.517 24.7629 64.9233 24.9029C63.9622 25.1295 50.8736 25.5793 50.4106 25.4017C50.0977 25.2816 50.0539 25.0654 50.1697 24.2129C50.5371 21.5076 51.9647 18.5017 53.7062 16.767C54.3917 16.084 55.2075 15.4214 55.5191 15.2945C57.21 14.6054 57.789 14.4653 58.9821 14.4563C59.7027 14.4508 60.6347 14.5893 61.0533 14.7642ZM91.8897 14.699C93.3039 15.0894 94.9747 16.9209 95.6906 18.8652C96.33 20.6023 96.8578 23.3028 96.7298 24.183C96.6709 24.5872 96.4603 24.7864 95.9686 24.9034C95.0923 25.1114 81.6014 25.5907 81.3306 25.4234C81.218 25.3536 81.1258 25.0561 81.1258 24.762C81.1258 24.1866 81.7435 21.6187 82.0225 21.0338C82.1158 20.8382 82.3807 20.2701 82.611 19.7716C83.0642 18.7911 84.2967 17.1429 85.2047 16.3034C85.5163 16.0151 86.3831 15.4796 87.1309 15.113C88.6224 14.3819 90.2334 14.2419 91.8897 14.699ZM191.691 15.2297C193.735 16.2653 194.974 18.4894 195.696 22.4193C196.221 25.2784 196.331 25.2059 191.221 25.3996C184.3 25.6623 180.154 25.5981 180.154 25.2285C180.154 24.7978 180.806 22.1539 181.053 21.5845C182.535 18.1658 183.928 16.4468 186.094 15.3643C187.937 14.4433 190.04 14.3928 191.691 15.2297ZM287.547 15.2297C289.49 16.2148 290.724 18.2601 291.448 21.6978C292.019 24.4096 291.998 24.8333 291.281 25.106C290.956 25.2295 287.387 25.3965 283.35 25.4769C274.997 25.6435 275.724 25.8447 276.367 23.5455C277.338 20.0703 278.34 18.2051 280.081 16.6324C282.287 14.6396 285.274 14.0783 287.547 15.2297ZM122.836 15.3498C126.246 16.3108 128.705 22.2468 128.705 29.5157C128.705 31.9382 128.318 35.1504 127.804 36.9938C127.003 39.8663 125.345 42.402 123.509 43.5611C120.566 45.4187 115.956 44.3201 112.908 41.0351L111.718 39.753L111.719 35.8807C111.72 27.1842 113.812 19.7054 117.077 16.7205C118.936 15.0223 120.42 14.6688 122.836 15.3498ZM212.508 32.5265C212.193 32.8648 211.056 34.2426 209.981 35.5884L208.026 38.0351V39.7127C208.026 43.1739 207.297 44.5804 205.499 44.5886C204.535 44.5931 204.107 44.8644 204.211 45.4055C204.289 45.8096 204.645 45.8347 211.135 45.8916C217.746 45.9494 217.986 45.9362 218.217 45.5045C218.542 44.8968 217.933 44.5852 216.418 44.5852C215.726 44.5852 215.033 44.4354 214.692 44.2117C213.551 43.4642 213.465 42.9828 213.465 37.3584C213.465 34.493 213.379 32.095 213.273 32.03C213.167 31.9647 212.823 32.1881 212.508 32.5265ZM299.839 42.7723C299.839 43.0839 299.89 43.2115 299.953 43.0556C300.016 42.8999 300.016 42.645 299.953 42.4891C299.89 42.3334 299.839 42.4607 299.839 42.7723Z" fill="black"/>
</svg>
