<svg width="383" height="316" viewBox="0 0 383 316" fill="none" xmlns="http://www.w3.org/2000/svg">
<path d="M0.000213623 144.498C0.000213623 143.564 0.756867 142.807 1.69025 142.807H4.2253V169.003H1.69025C0.756867 169.003 0.000213623 168.246 0.000213623 167.313V144.498Z" fill="#75706D"/>
<path opacity="0.4" d="M0.000213623 144.498C0.000213623 143.564 0.756867 142.807 1.69025 142.807H4.2253V169.003H1.69025C0.756867 169.003 0.000213623 168.246 0.000213623 167.313V144.498Z" fill="url(#paint0_linear_1_114)"/>
<path opacity="0.4" d="M0.000213623 144.498C0.000213623 143.564 0.756867 142.807 1.69025 142.807H4.2253V169.003H1.69025C0.756867 169.003 0.000213623 168.246 0.000213623 167.313V144.498Z" fill="url(#paint1_linear_1_114)"/>
<path opacity="0.4" d="M0.000213623 144.498C0.000213623 143.564 0.756867 142.807 1.69025 142.807H4.2253V169.003H1.69025C0.756867 169.003 0.000213623 168.246 0.000213623 167.313V144.498Z" fill="url(#paint2_linear_1_114)"/>
<g filter="url(#filter0_f_1_114)">
<path d="M0.84581 144.075C0.84581 143.842 1.03497 143.653 1.26832 143.653C1.50166 143.653 1.69083 143.842 1.69083 144.075V145.343H0.84581V144.075Z" fill="white"/>
</g>
<g filter="url(#filter1_f_1_114)">
<path d="M0.84581 145.343H1.69083V166.89C1.69083 167.124 1.50166 167.313 1.26832 167.313C1.03497 167.313 0.84581 167.124 0.84581 166.89V145.343Z" fill="white" fill-opacity="0.8"/>
</g>
<path d="M0.000213623 196.044C0.000213623 195.11 0.756867 194.354 1.69025 194.354H4.2253V248.435H1.69025C0.756867 248.435 0.000213623 247.678 0.000213623 246.745V196.044Z" fill="#75706D"/>
<path opacity="0.4" d="M0.000213623 196.044C0.000213623 195.11 0.756867 194.354 1.69025 194.354H4.2253V248.435H1.69025C0.756867 248.435 0.000213623 247.678 0.000213623 246.745V196.044Z" fill="url(#paint3_linear_1_114)"/>
<path opacity="0.4" d="M0.000213623 196.044C0.000213623 195.11 0.756867 194.354 1.69025 194.354H4.2253V248.435H1.69025C0.756867 248.435 0.000213623 247.678 0.000213623 246.745V196.044Z" fill="url(#paint4_linear_1_114)"/>
<path opacity="0.4" d="M0.000213623 196.044C0.000213623 195.11 0.756867 194.354 1.69025 194.354H4.2253V248.435H1.69025C0.756867 248.435 0.000213623 247.678 0.000213623 246.745V196.044Z" fill="url(#paint5_linear_1_114)"/>
<g filter="url(#filter2_f_1_114)">
<path d="M0.84581 196.466C0.84581 196.233 1.03497 196.044 1.26832 196.044C1.50166 196.044 1.69083 196.233 1.69083 196.466V197.734H0.84581V196.466Z" fill="white"/>
</g>
<g filter="url(#filter3_f_1_114)">
<path d="M0.84581 197.734H1.69083V246.322C1.69083 246.556 1.50166 246.745 1.26832 246.745C1.03497 246.745 0.84581 246.556 0.84581 246.322V197.734Z" fill="white" fill-opacity="0.8"/>
</g>
<path d="M0.000213623 263.645C0.000213623 262.712 0.756867 261.955 1.69025 261.955H4.2253V316.036H1.69025C0.756867 316.036 0.000213623 315.279 0.000213623 314.346V263.645Z" fill="#75706D"/>
<path opacity="0.4" d="M0.000213623 263.645C0.000213623 262.712 0.756867 261.955 1.69025 261.955H4.2253V316.036H1.69025C0.756867 316.036 0.000213623 315.279 0.000213623 314.346V263.645Z" fill="url(#paint6_linear_1_114)"/>
<path opacity="0.4" d="M0.000213623 263.645C0.000213623 262.712 0.756867 261.955 1.69025 261.955H4.2253V316.036H1.69025C0.756867 316.036 0.000213623 315.279 0.000213623 314.346V263.645Z" fill="url(#paint7_linear_1_114)"/>
<path opacity="0.4" d="M0.000213623 263.645C0.000213623 262.712 0.756867 261.955 1.69025 261.955H4.2253V316.036H1.69025C0.756867 316.036 0.000213623 315.279 0.000213623 314.346V263.645Z" fill="url(#paint8_linear_1_114)"/>
<g filter="url(#filter4_f_1_114)">
<path d="M0.84581 264.067C0.84581 263.834 1.03497 263.645 1.26832 263.645C1.50166 263.645 1.69083 263.834 1.69083 264.067V265.335H0.84581V264.067Z" fill="white"/>
</g>
<g filter="url(#filter5_f_1_114)">
<path d="M0.84581 265.335H1.69083V313.924C1.69083 314.157 1.50166 314.346 1.26832 314.346C1.03497 314.346 0.84581 314.157 0.84581 313.924V265.335Z" fill="white" fill-opacity="0.8"/>
</g>
<path d="M382.793 214.634C382.793 213.701 382.036 212.944 381.103 212.944H378.568V296.601H381.103C382.036 296.601 382.793 295.844 382.793 294.911V214.634Z" fill="#75706D"/>
<path opacity="0.4" d="M382.793 214.634C382.793 213.701 382.036 212.944 381.103 212.944H378.568V296.601H381.103C382.036 296.601 382.793 295.844 382.793 294.911V214.634Z" fill="url(#paint9_linear_1_114)"/>
<path opacity="0.4" d="M382.793 214.634C382.793 213.701 382.036 212.944 381.103 212.944H378.568V296.601H381.103C382.036 296.601 382.793 295.844 382.793 294.911V214.634Z" fill="url(#paint10_linear_1_114)"/>
<path opacity="0.4" d="M382.793 214.634C382.793 213.701 382.036 212.944 381.103 212.944H378.568V296.601H381.103C382.036 296.601 382.793 295.844 382.793 294.911V214.634Z" fill="url(#paint11_linear_1_114)"/>
<g filter="url(#filter6_f_1_114)">
<path d="M381.947 215.057C381.947 214.823 381.758 214.634 381.525 214.634C381.291 214.634 381.102 214.823 381.102 215.057V216.324H381.947V215.057Z" fill="white"/>
</g>
<g filter="url(#filter7_f_1_114)">
<path d="M381.947 216.324H381.102V294.488C381.102 294.721 381.291 294.911 381.525 294.911C381.758 294.911 381.947 294.721 381.947 294.488V216.324Z" fill="white" fill-opacity="0.8"/>
</g>
<g clip-path="url(#clip0_1_114)">
<rect x="2.53505" width="378" height="779.105" rx="63.3762" fill="#C7C4BF"/>
<g filter="url(#filter8_f_1_114)">
<rect x="3.92136" y="1.38631" width="375.227" height="776.333" rx="61.9899" stroke="#4D4946" stroke-width="2.77262"/>
</g>
<g filter="url(#filter9_f_1_114)">
<rect x="2.99715" y="0.462103" width="377.076" height="778.181" rx="62.9141" stroke="#4A4643" stroke-width="0.924205"/>
</g>
<g filter="url(#filter10_f_1_114)">
<rect x="8.06725" y="5.53217" width="367.503" height="768.041" rx="57.844" stroke="#D9D6D1" stroke-width="0.924205"/>
</g>
<rect x="8.26622" y="5.7302" width="367.107" height="767.645" rx="57.646" stroke="#F3F0EB" stroke-width="0.369682"/>
</g>
<g clip-path="url(#clip1_1_114)">
<rect x="8.45107" y="5.91504" width="366.91" height="767.09" rx="57.4611" fill="#000100"/>
<g filter="url(#filter11_f_1_114)">
<rect x="10.2995" y="7.76345" width="363.213" height="763.394" rx="55.6127" stroke="url(#paint12_radial_1_114)" stroke-width="3.69682"/>
</g>
</g>
<g clip-path="url(#clip2_1_114)">
<rect x="16.9004" y="14.3652" width="349.837" height="750.375" rx="49.856" fill="#DAE2D3"/>
<g clip-path="url(#clip3_1_114)">
<rect width="351.182" height="760.427" transform="translate(16.0546 9.76147)" fill="white"/>
<rect x="34.7851" y="65.9507" width="41.206" height="41.206" rx="20.603" fill="#F6F7F9"/>
<path fill-rule="evenodd" clip-rule="evenodd" d="M51.9178 87.2157C51.5521 86.8499 51.5521 86.257 51.9178 85.8913L57.2155 80.5936C57.5812 80.2279 58.1742 80.2279 58.5399 80.5936C58.9056 80.9593 58.9056 81.5523 58.5399 81.918L53.9045 86.5535L58.5399 91.1889C58.9056 91.5546 58.9056 92.1476 58.5399 92.5133C58.1742 92.879 57.5812 92.879 57.2155 92.5133L51.9178 87.2157Z" fill="#171717"/>
<path d="M158.827 93.3066C157.967 93.3066 157.192 93.1605 156.501 92.8683C155.815 92.5761 155.248 92.1603 154.798 91.6209C154.354 91.0759 154.065 90.4325 153.93 89.6908L155.481 89.4464C155.678 90.2105 156.085 90.809 156.703 91.2416C157.327 91.6686 158.06 91.8822 158.903 91.8822C159.448 91.8822 159.94 91.7979 160.378 91.6293C160.822 91.4551 161.173 91.2079 161.431 90.8876C161.69 90.5673 161.819 90.1881 161.819 89.7498C161.819 89.4801 161.771 89.2497 161.676 89.0587C161.586 88.862 161.46 88.6962 161.297 88.5614C161.139 88.4209 160.959 88.3029 160.757 88.2074C160.555 88.1119 160.344 88.0332 160.125 87.9714L157.032 87.0527C156.695 86.9516 156.369 86.8251 156.054 86.6734C155.74 86.5161 155.459 86.3222 155.211 86.0919C154.964 85.8559 154.767 85.5749 154.621 85.249C154.475 84.9175 154.402 84.527 154.402 84.0775C154.402 83.3583 154.588 82.7458 154.958 82.2401C155.335 81.7288 155.843 81.3383 156.484 81.0686C157.125 80.7989 157.847 80.6668 158.65 80.6724C159.465 80.678 160.193 80.8241 160.833 81.1107C161.479 81.3916 162.013 81.7962 162.434 82.3244C162.862 82.8526 163.148 83.4847 163.294 84.2208L161.701 84.4989C161.617 84.0044 161.429 83.5802 161.136 83.2262C160.85 82.8666 160.49 82.5913 160.058 82.4002C159.625 82.2036 159.15 82.1024 158.633 82.0968C158.139 82.0912 157.692 82.1699 157.293 82.3328C156.894 82.4958 156.577 82.7233 156.341 83.0155C156.105 83.3021 155.987 83.6336 155.987 84.0101C155.987 84.3809 156.094 84.6815 156.307 84.9119C156.521 85.1367 156.782 85.3165 157.091 85.4513C157.406 85.5805 157.712 85.6873 158.01 85.7716L160.319 86.4374C160.583 86.5105 160.886 86.6116 161.229 86.7409C161.578 86.8701 161.915 87.0527 162.241 87.2887C162.567 87.5191 162.836 87.8281 163.05 88.2158C163.263 88.5979 163.37 89.0811 163.37 89.6655C163.37 90.2499 163.252 90.7696 163.016 91.2248C162.786 91.6799 162.463 92.062 162.047 92.371C161.631 92.6744 161.148 92.9048 160.597 93.0621C160.046 93.2251 159.456 93.3066 158.827 93.3066ZM170.22 93.0537C169.681 93.1605 169.147 93.2026 168.619 93.1801C168.096 93.1633 167.63 93.0593 167.22 92.8683C166.81 92.6716 166.498 92.3682 166.284 91.958C166.104 91.5984 166.006 91.236 165.989 90.8708C165.978 90.4999 165.972 90.0813 165.972 89.6149V81.4225H167.473V89.5475C167.473 89.9184 167.475 90.2358 167.481 90.4999C167.492 90.764 167.551 90.9916 167.658 91.1826C167.86 91.5422 168.181 91.7529 168.619 91.8147C169.063 91.8765 169.597 91.8597 170.22 91.7642V93.0537ZM164.127 85.19V83.9511H170.22V85.19H164.127ZM174.656 93.3066C173.976 93.3066 173.406 93.1829 172.945 92.9357C172.49 92.6829 172.144 92.3513 171.908 91.9412C171.678 91.531 171.563 91.0815 171.563 90.5926C171.563 90.115 171.653 89.702 171.832 89.3537C172.018 88.9997 172.276 88.7075 172.608 88.4771C172.939 88.2411 173.335 88.0557 173.796 87.9208C174.229 87.8028 174.712 87.7017 175.246 87.6174C175.785 87.5275 176.33 87.446 176.881 87.373C177.432 87.2999 177.946 87.2297 178.423 87.1623L177.884 87.4741C177.901 86.665 177.738 86.0666 177.395 85.6789C177.058 85.2912 176.474 85.0973 175.642 85.0973C175.091 85.0973 174.608 85.2237 174.192 85.4766C173.782 85.7238 173.493 86.1284 173.324 86.6903L171.9 86.2604C172.119 85.4626 172.543 84.836 173.172 84.3809C173.802 83.9258 174.631 83.6982 175.659 83.6982C176.485 83.6982 177.193 83.8471 177.783 84.1449C178.378 84.4371 178.805 84.881 179.064 85.4766C179.193 85.7575 179.275 86.0638 179.308 86.3953C179.342 86.7212 179.359 87.0639 179.359 87.4236V93.0537H178.027V90.8708L178.339 91.073C177.996 91.8091 177.516 92.3654 176.898 92.7419C176.285 93.1183 175.538 93.3066 174.656 93.3066ZM174.883 92.0507C175.423 92.0507 175.889 91.9552 176.283 91.7642C176.681 91.5675 177.002 91.3118 177.243 90.9972C177.485 90.6769 177.642 90.3285 177.715 89.9521C177.8 89.6711 177.845 89.3593 177.85 89.0165C177.861 88.6681 177.867 88.4012 177.867 88.2158L178.39 88.4434C177.901 88.5108 177.42 88.5754 176.948 88.6372C176.476 88.699 176.03 88.7665 175.608 88.8395C175.187 88.9069 174.808 88.9884 174.47 89.0839C174.223 89.1626 173.99 89.2638 173.771 89.3874C173.557 89.511 173.383 89.6711 173.248 89.8678C173.119 90.0588 173.054 90.2976 173.054 90.5842C173.054 90.8314 173.116 91.0674 173.24 91.2922C173.369 91.5169 173.566 91.6996 173.83 91.84C174.1 91.9805 174.451 92.0507 174.883 92.0507ZM186.633 93.0537C186.093 93.1605 185.559 93.2026 185.031 93.1801C184.509 93.1633 184.042 93.0593 183.632 92.8683C183.222 92.6716 182.91 92.3682 182.697 91.958C182.517 91.5984 182.418 91.236 182.402 90.8708C182.39 90.4999 182.385 90.0813 182.385 89.6149V81.4225H183.885V89.5475C183.885 89.9184 183.888 90.2358 183.893 90.4999C183.905 90.764 183.964 90.9916 184.07 91.1826C184.273 91.5422 184.593 91.7529 185.031 91.8147C185.475 91.8765 186.009 91.8597 186.633 91.7642V93.0537ZM180.539 85.19V83.9511H186.633V85.19H180.539ZM188.649 82.3412V80.7904H190.149V82.3412H188.649ZM188.649 93.0537V83.9511H190.149V93.0537H188.649ZM196.117 93.2981C195.033 93.2981 194.142 93.0621 193.445 92.5902C192.754 92.1125 192.33 91.4467 192.173 90.5926L193.707 90.3482C193.83 90.8427 194.114 91.236 194.558 91.5282C195.002 91.8147 195.552 91.958 196.21 91.958C196.834 91.958 197.322 91.8288 197.676 91.5703C198.03 91.3118 198.207 90.9607 198.207 90.5168C198.207 90.2583 198.148 90.0504 198.03 89.8931C197.912 89.7301 197.668 89.5784 197.297 89.4379C196.932 89.2975 196.378 89.1289 195.637 88.9322C194.833 88.7187 194.201 88.4968 193.74 88.2664C193.28 88.036 192.951 87.7691 192.754 87.4657C192.558 87.1623 192.459 86.7942 192.459 86.3616C192.459 85.8278 192.605 85.3614 192.898 84.9625C193.19 84.5579 193.597 84.2461 194.12 84.0269C194.648 83.8078 195.26 83.6982 195.957 83.6982C196.648 83.6982 197.266 83.8078 197.811 84.0269C198.356 84.2461 198.795 84.5579 199.126 84.9625C199.463 85.3614 199.663 85.8278 199.725 86.3616L198.191 86.6397C198.117 86.1509 197.881 85.766 197.483 85.485C197.089 85.2041 196.581 85.0552 195.957 85.0383C195.367 85.0158 194.887 85.1198 194.516 85.3502C194.151 85.5805 193.968 85.8924 193.968 86.2857C193.968 86.5049 194.035 86.6931 194.17 86.8504C194.311 87.0078 194.566 87.1567 194.937 87.2971C195.314 87.4376 195.859 87.5977 196.572 87.7775C197.376 87.9798 198.008 88.2018 198.469 88.4434C198.935 88.6794 199.267 88.9603 199.463 89.2862C199.66 89.6065 199.758 90.0026 199.758 90.4746C199.758 91.3512 199.435 92.0423 198.789 92.548C198.143 93.0481 197.252 93.2981 196.117 93.2981ZM206.699 93.0537C206.16 93.1605 205.626 93.2026 205.098 93.1801C204.575 93.1633 204.109 93.0593 203.699 92.8683C203.289 92.6716 202.977 92.3682 202.763 91.958C202.584 91.5984 202.485 91.236 202.468 90.8708C202.457 90.4999 202.451 90.0813 202.451 89.6149V81.4225H203.952V89.5475C203.952 89.9184 203.955 90.2358 203.96 90.4999C203.971 90.764 204.03 90.9916 204.137 91.1826C204.339 91.5422 204.66 91.7529 205.098 91.8147C205.542 91.8765 206.076 91.8597 206.699 91.7642V93.0537ZM200.606 85.19V83.9511H206.699V85.19H200.606ZM208.716 82.3412V80.7904H210.216V82.3412H208.716ZM208.716 93.0537V83.9511H210.216V93.0537H208.716ZM216.58 93.3066C215.659 93.3066 214.875 93.1015 214.229 92.6913C213.588 92.2755 213.099 91.7052 212.762 90.9803C212.425 90.2555 212.251 89.4295 212.239 88.5024C212.251 87.5528 212.428 86.7184 212.77 85.9992C213.119 85.2743 213.616 84.7096 214.262 84.3051C214.908 83.9005 215.687 83.6982 216.597 83.6982C217.558 83.6982 218.384 83.9342 219.075 84.4062C219.772 84.8782 220.238 85.5244 220.474 86.3447L218.991 86.7914C218.8 86.2632 218.488 85.8531 218.055 85.5609C217.628 85.2687 217.136 85.1226 216.58 85.1226C215.956 85.1226 215.442 85.2687 215.038 85.5609C214.633 85.8474 214.333 86.2464 214.136 86.7577C213.939 87.2634 213.838 87.845 213.832 88.5024C213.844 89.5138 214.077 90.3313 214.532 90.955C214.993 91.5731 215.675 91.8822 216.58 91.8822C217.176 91.8822 217.67 91.7473 218.063 91.4776C218.457 91.2023 218.755 90.8061 218.957 90.2892L220.474 90.6853C220.159 91.5338 219.668 92.1828 218.999 92.6323C218.33 93.0818 217.524 93.3066 216.58 93.3066ZM225.633 93.2981C224.548 93.2981 223.658 93.0621 222.961 92.5902C222.27 92.1125 221.846 91.4467 221.688 90.5926L223.222 90.3482C223.346 90.8427 223.63 91.236 224.074 91.5282C224.518 91.8147 225.068 91.958 225.726 91.958C226.349 91.958 226.838 91.8288 227.192 91.5703C227.546 91.3118 227.723 90.9607 227.723 90.5168C227.723 90.2583 227.664 90.0504 227.546 89.8931C227.428 89.7301 227.184 89.5784 226.813 89.4379C226.448 89.2975 225.894 89.1289 225.153 88.9322C224.349 88.7187 223.717 88.4968 223.256 88.2664C222.795 88.036 222.467 87.7691 222.27 87.4657C222.073 87.1623 221.975 86.7942 221.975 86.3616C221.975 85.8278 222.121 85.3614 222.413 84.9625C222.705 84.5579 223.113 84.2461 223.635 84.0269C224.164 83.8078 224.776 83.6982 225.473 83.6982C226.164 83.6982 226.782 83.8078 227.327 84.0269C227.872 84.2461 228.31 84.5579 228.642 84.9625C228.979 85.3614 229.178 85.8278 229.24 86.3616L227.706 86.6397C227.633 86.1509 227.397 85.766 226.998 85.485C226.605 85.2041 226.097 85.0552 225.473 85.0383C224.883 85.0158 224.402 85.1198 224.032 85.3502C223.666 85.5805 223.484 85.8924 223.484 86.2857C223.484 86.5049 223.551 86.6931 223.686 86.8504C223.826 87.0078 224.082 87.1567 224.453 87.2971C224.829 87.4376 225.374 87.5977 226.088 87.7775C226.892 87.9798 227.524 88.2018 227.984 88.4434C228.451 88.6794 228.782 88.9603 228.979 89.2862C229.176 89.6065 229.274 90.0026 229.274 90.4746C229.274 91.3512 228.951 92.0423 228.305 92.548C227.659 93.0481 226.768 93.2981 225.633 93.2981Z" fill="#171717"/>
<rect x="307.302" y="65.9507" width="41.206" height="41.206" rx="20.603" fill="#F6F7F9"/>
<g clip-path="url(#clip4_1_114)">
<path d="M332.12 87.0219C332.12 86.7441 332.202 86.4725 332.357 86.2415C332.511 86.0105 332.73 85.8304 332.987 85.7241C333.244 85.6178 333.526 85.59 333.799 85.6442C334.071 85.6984 334.322 85.8322 334.518 86.0286C334.714 86.2251 334.848 86.4754 334.902 86.7479C334.957 87.0204 334.929 87.3028 334.822 87.5595C334.716 87.8162 334.536 88.0356 334.305 88.1899C334.074 88.3443 333.802 88.4267 333.525 88.4267C333.152 88.4267 332.795 88.2787 332.531 88.0152C332.268 87.7518 332.12 87.3945 332.12 87.0219ZM326.501 87.0219C326.501 86.7441 326.583 86.4725 326.738 86.2415C326.892 86.0105 327.111 85.8304 327.368 85.7241C327.625 85.6178 327.907 85.59 328.18 85.6442C328.452 85.6984 328.703 85.8322 328.899 86.0286C329.095 86.2251 329.229 86.4754 329.283 86.7479C329.338 87.0204 329.31 87.3028 329.203 87.5595C329.097 87.8162 328.917 88.0356 328.686 88.1899C328.455 88.3443 328.183 88.4267 327.906 88.4267C327.533 88.4267 327.176 88.2787 326.912 88.0152C326.649 87.7518 326.501 87.3945 326.501 87.0219ZM320.882 87.0219C320.882 86.7441 320.964 86.4725 321.119 86.2415C321.273 86.0105 321.492 85.8304 321.749 85.7241C322.006 85.6178 322.288 85.59 322.561 85.6442C322.833 85.6984 323.084 85.8322 323.28 86.0286C323.476 86.2251 323.61 86.4754 323.664 86.7479C323.719 87.0204 323.691 87.3028 323.584 87.5595C323.478 87.8162 323.298 88.0356 323.067 88.1899C322.836 88.3443 322.564 88.4267 322.287 88.4267C321.914 88.4267 321.557 88.2787 321.293 88.0152C321.03 87.7518 320.882 87.3945 320.882 87.0219V87.0219Z" fill="#171717"/>
</g>
<rect x="34.7851" y="129.632" width="99.5797" height="45.2216" rx="22.6108" fill="#5945FD"/>
<path d="M68.5476 157.743V146.954H71.874C71.9838 146.954 72.1761 146.957 72.4508 146.962C72.7255 146.967 72.9878 146.987 73.2375 147.022C74.0716 147.132 74.7683 147.436 75.3277 147.936C75.8921 148.43 76.3167 149.06 76.6013 149.824C76.886 150.588 77.0284 151.43 77.0284 152.349C77.0284 153.268 76.886 154.109 76.6013 154.873C76.3167 155.637 75.8921 156.269 75.3277 156.769C74.7683 157.263 74.0716 157.565 73.2375 157.675C72.9878 157.705 72.723 157.725 72.4433 157.735C72.1686 157.74 71.9789 157.743 71.874 157.743H68.5476ZM69.9186 156.469H71.874C72.0638 156.469 72.276 156.464 72.5108 156.454C72.7455 156.439 72.9503 156.417 73.1251 156.387C73.7145 156.277 74.1915 156.03 74.5561 155.645C74.9207 155.26 75.1879 154.781 75.3577 154.207C75.5275 153.632 75.6124 153.013 75.6124 152.349C75.6124 151.669 75.525 151.042 75.3502 150.468C75.1804 149.894 74.9132 149.417 74.5486 149.037C74.184 148.658 73.7095 148.415 73.1251 148.31C72.9503 148.275 72.743 148.253 72.5033 148.243C72.2635 148.233 72.0538 148.228 71.874 148.228H69.9186V156.469ZM81.0465 157.967C80.4422 157.967 79.9352 157.858 79.5256 157.638C79.1211 157.413 78.8139 157.118 78.6041 156.754C78.3994 156.389 78.297 155.99 78.297 155.555C78.297 155.131 78.3769 154.763 78.5367 154.454C78.7015 154.139 78.9313 153.879 79.226 153.675C79.5206 153.465 79.8728 153.3 80.2823 153.18C80.6669 153.075 81.0964 152.985 81.5709 152.91C82.0504 152.83 82.5349 152.758 83.0244 152.693C83.5138 152.628 83.9708 152.566 84.3954 152.506L83.9159 152.783C83.9309 152.064 83.786 151.532 83.4814 151.187C83.1817 150.843 82.6622 150.67 81.923 150.67C81.4336 150.67 81.004 150.783 80.6344 151.007C80.2698 151.227 80.0126 151.587 79.8628 152.086L78.5966 151.704C78.7914 150.995 79.1685 150.438 79.7279 150.034C80.2873 149.629 81.024 149.427 81.938 149.427C82.6722 149.427 83.3016 149.559 83.826 149.824C84.3554 150.083 84.735 150.478 84.9648 151.007C85.0796 151.257 85.1521 151.529 85.182 151.824C85.212 152.114 85.227 152.418 85.227 152.738V157.743H84.0433V155.802L84.3205 155.982C84.0158 156.636 83.5887 157.131 83.0393 157.465C82.4949 157.8 81.8306 157.967 81.0465 157.967ZM81.2488 156.851C81.7283 156.851 82.1428 156.766 82.4924 156.596C82.847 156.422 83.1317 156.194 83.3465 155.915C83.5613 155.63 83.7011 155.32 83.7661 154.986C83.841 154.736 83.8809 154.459 83.8859 154.154C83.8959 153.844 83.9009 153.607 83.9009 153.442L84.3654 153.645C83.9309 153.705 83.5038 153.762 83.0843 153.817C82.6647 153.872 82.2677 153.932 81.8931 153.997C81.5185 154.057 81.1814 154.129 80.8817 154.214C80.6619 154.284 80.4546 154.374 80.2598 154.484C80.0701 154.594 79.9152 154.736 79.7954 154.911C79.6805 155.081 79.623 155.293 79.623 155.548C79.623 155.767 79.678 155.977 79.7879 156.177C79.9027 156.377 80.0775 156.539 80.3123 156.664C80.552 156.789 80.8642 156.851 81.2488 156.851ZM87.3247 148.22V146.842H88.6583V148.22H87.3247ZM87.3247 157.743V149.651H88.6583V157.743H87.3247ZM91.056 157.743V146.73H92.3896V157.743H91.056ZM95.7613 161.339L97.3271 157.083L97.3496 158.342L93.8134 149.651H95.2144L97.9864 156.641H97.5069L100.107 149.651H101.463L97.0574 161.339H95.7613Z" fill="white"/>
<rect x="141.857" y="129.632" width="99.5797" height="45.2216" rx="22.6108" fill="#F6F7F9"/>
<path d="M169.762 157.743L166.637 146.954H168.031L170.428 155.488L172.818 146.962L174.219 146.954L176.617 155.488L179.007 146.954H180.407L177.283 157.743H175.95L173.522 149.284L171.095 157.743H169.762ZM184.298 157.967C183.504 157.967 182.81 157.793 182.215 157.443C181.626 157.088 181.166 156.596 180.837 155.967C180.507 155.333 180.342 154.594 180.342 153.749C180.342 152.865 180.505 152.101 180.829 151.457C181.154 150.808 181.606 150.308 182.185 149.959C182.77 149.604 183.454 149.427 184.238 149.427C185.052 149.427 185.744 149.614 186.313 149.989C186.888 150.363 187.317 150.898 187.602 151.592C187.892 152.286 188.016 153.113 187.977 154.072H186.628V153.592C186.613 152.598 186.411 151.857 186.021 151.367C185.632 150.873 185.052 150.625 184.283 150.625C183.459 150.625 182.832 150.89 182.403 151.42C181.973 151.949 181.758 152.708 181.758 153.697C181.758 154.651 181.973 155.39 182.403 155.915C182.832 156.439 183.444 156.701 184.238 156.701C184.772 156.701 185.237 156.579 185.632 156.334C186.026 156.089 186.336 155.737 186.561 155.278L187.842 155.72C187.527 156.434 187.053 156.988 186.418 157.383C185.789 157.773 185.082 157.967 184.298 157.967ZM181.309 154.072V153H187.287V154.072H181.309ZM193.151 157.967C192.357 157.967 191.662 157.793 191.068 157.443C190.479 157.088 190.019 156.596 189.689 155.967C189.36 155.333 189.195 154.594 189.195 153.749C189.195 152.865 189.357 152.101 189.682 151.457C190.007 150.808 190.459 150.308 191.038 149.959C191.622 149.604 192.307 149.427 193.091 149.427C193.905 149.427 194.597 149.614 195.166 149.989C195.74 150.363 196.17 150.898 196.455 151.592C196.744 152.286 196.869 153.113 196.829 154.072H195.481V153.592C195.466 152.598 195.263 151.857 194.874 151.367C194.484 150.873 193.905 150.625 193.136 150.625C192.312 150.625 191.685 150.89 191.255 151.42C190.826 151.949 190.611 152.708 190.611 153.697C190.611 154.651 190.826 155.39 191.255 155.915C191.685 156.439 192.297 156.701 193.091 156.701C193.625 156.701 194.09 156.579 194.484 156.334C194.879 156.089 195.189 155.737 195.413 155.278L196.694 155.72C196.38 156.434 195.905 156.988 195.271 157.383C194.642 157.773 193.935 157.967 193.151 157.967ZM190.161 154.072V153H196.14V154.072H190.161ZM198.49 157.743L198.497 146.954H199.846V153.547L203.24 149.651H204.97L201.397 153.697L205.39 157.743H203.524L199.846 153.847V157.743H198.49ZM206.285 157.743V146.73H207.619V157.743H206.285ZM210.991 161.339L212.556 157.083L212.579 158.342L209.043 149.651H210.444L213.216 156.641H212.736L215.336 149.651H216.692L212.287 161.339H210.991Z" fill="#595959"/>
<rect x="248.928" y="129.632" width="99.5797" height="45.2216" rx="22.6108" fill="#F6F7F9"/>
<path d="M270.897 157.743V146.954H272.111L276.186 155.548L280.239 146.954H281.468V157.735H280.202V149.884L276.538 157.743H275.827L272.163 149.884V157.743H270.897ZM287.015 157.967C286.211 157.967 285.517 157.785 284.932 157.421C284.353 157.056 283.906 156.551 283.591 155.907C283.277 155.263 283.119 154.524 283.119 153.69C283.119 152.84 283.279 152.096 283.599 151.457C283.918 150.818 284.37 150.321 284.955 149.966C285.539 149.606 286.226 149.427 287.015 149.427C287.824 149.427 288.521 149.609 289.105 149.974C289.69 150.333 290.137 150.835 290.446 151.479C290.761 152.119 290.918 152.855 290.918 153.69C290.918 154.534 290.761 155.278 290.446 155.922C290.132 156.561 289.682 157.063 289.098 157.428C288.513 157.788 287.819 157.967 287.015 157.967ZM287.015 156.701C287.854 156.701 288.478 156.422 288.888 155.862C289.298 155.303 289.502 154.579 289.502 153.69C289.502 152.776 289.295 152.049 288.881 151.509C288.466 150.965 287.844 150.693 287.015 150.693C286.451 150.693 285.986 150.82 285.622 151.075C285.257 151.33 284.985 151.682 284.805 152.131C284.625 152.581 284.535 153.1 284.535 153.69C284.535 154.599 284.745 155.328 285.165 155.877C285.584 156.427 286.201 156.701 287.015 156.701ZM298.329 157.743V153.69C298.329 153.305 298.294 152.935 298.224 152.581C298.159 152.226 298.042 151.909 297.872 151.629C297.707 151.345 297.483 151.12 297.198 150.955C296.918 150.79 296.564 150.708 296.134 150.708C295.799 150.708 295.495 150.765 295.22 150.88C294.95 150.99 294.718 151.16 294.523 151.39C294.328 151.619 294.176 151.909 294.066 152.259C293.961 152.603 293.909 153.01 293.909 153.48L293.032 153.21C293.032 152.426 293.172 151.754 293.452 151.195C293.737 150.63 294.134 150.198 294.643 149.899C295.158 149.594 295.762 149.442 296.456 149.442C296.981 149.442 297.428 149.524 297.797 149.689C298.167 149.854 298.474 150.073 298.719 150.348C298.963 150.618 299.156 150.923 299.296 151.262C299.435 151.597 299.533 151.939 299.588 152.289C299.648 152.633 299.678 152.96 299.678 153.27V157.743H298.329ZM292.56 157.743V149.651H293.759V151.817H293.909V157.743H292.56ZM306.143 157.743C305.664 157.838 305.189 157.875 304.72 157.855C304.255 157.84 303.841 157.748 303.476 157.578C303.111 157.403 302.834 157.133 302.644 156.769C302.484 156.449 302.397 156.127 302.382 155.802C302.372 155.473 302.367 155.101 302.367 154.686V147.404H303.701V154.626C303.701 154.956 303.703 155.238 303.708 155.473C303.718 155.707 303.771 155.91 303.865 156.079C304.045 156.399 304.33 156.586 304.72 156.641C305.114 156.696 305.589 156.681 306.143 156.596V157.743ZM300.726 150.753V149.651H306.143V150.753H300.726ZM313.547 157.743V153.69C313.547 153.305 313.512 152.935 313.442 152.581C313.377 152.226 313.26 151.909 313.09 151.629C312.925 151.345 312.7 151.12 312.416 150.955C312.136 150.79 311.781 150.708 311.352 150.708C311.017 150.708 310.713 150.765 310.438 150.88C310.168 150.99 309.936 151.16 309.741 151.39C309.546 151.619 309.394 151.909 309.284 152.259C309.179 152.603 309.127 153.01 309.127 153.48L308.25 153.21C308.25 152.426 308.39 151.754 308.67 151.195C308.954 150.63 309.352 150.198 309.861 149.899C310.375 149.594 310.98 149.442 311.674 149.442C312.198 149.442 312.645 149.524 313.015 149.689C313.385 149.854 313.692 150.073 313.937 150.348C314.181 150.618 314.374 150.923 314.513 151.262C314.653 151.597 314.751 151.939 314.806 152.289C314.866 152.633 314.896 152.96 314.896 153.27V157.743H313.547ZM307.778 157.743V146.954H308.977V152.91H309.127V157.743H307.778ZM316.993 157.743V146.73H318.327V157.743H316.993ZM321.698 161.339L323.264 157.083L323.287 158.342L319.751 149.651H321.151L323.923 156.641H323.444L326.044 149.651H327.4L322.995 161.339H321.698Z" fill="#595959"/>
<rect x="34.7851" y="189.837" width="313.723" height="248.249" rx="22.4757" fill="#F6F7F9"/>
<rect x="49.7689" y="212.313" width="48.6973" height="183.551" rx="11.2378" fill="#D2D2D2"/>
<rect x="108.533" y="274.12" width="48.6975" height="121.744" rx="11.2378" fill="#D2D2D2"/>
<rect x="167.298" y="253.518" width="48.6975" height="142.347" rx="11.2378" fill="#5945FD"/>
<rect x="226.062" y="287.231" width="48.6975" height="108.633" rx="11.2378" fill="#E6E6E6"/>
<rect x="284.827" y="229.169" width="48.6975" height="166.695" rx="11.2378" fill="#E6E6E6"/>
<rect x="148.1" y="199.202" width="88.0297" height="41.4757" rx="11.2378" fill="#5945FD"/>
<path d="M163.83 226.802V213.181H164.703V226.802H163.83ZM166.56 217.405C166.503 216.902 166.269 216.512 165.857 216.235C165.446 215.955 164.928 215.814 164.303 215.814C163.857 215.814 163.47 215.885 163.144 216.027C162.817 216.166 162.564 216.357 162.383 216.602C162.205 216.843 162.117 217.118 162.117 217.427C162.117 217.686 162.177 217.909 162.297 218.097C162.422 218.285 162.583 218.443 162.782 218.571C162.984 218.695 163.2 218.8 163.431 218.885C163.661 218.966 163.883 219.034 164.096 219.087L165.16 219.364C165.508 219.449 165.864 219.564 166.23 219.709C166.595 219.855 166.934 220.046 167.246 220.284C167.558 220.522 167.81 220.816 168.002 221.167C168.197 221.519 168.294 221.939 168.294 222.428C168.294 223.046 168.135 223.594 167.815 224.073C167.5 224.551 167.04 224.929 166.437 225.206C165.838 225.483 165.112 225.621 164.261 225.621C163.445 225.621 162.739 225.491 162.143 225.233C161.547 224.974 161.081 224.606 160.744 224.131C160.407 223.652 160.221 223.085 160.185 222.428H161.835C161.866 222.822 161.994 223.15 162.218 223.413C162.445 223.672 162.734 223.865 163.085 223.993C163.44 224.117 163.828 224.179 164.25 224.179C164.715 224.179 165.128 224.106 165.49 223.961C165.855 223.812 166.143 223.606 166.352 223.344C166.561 223.078 166.666 222.767 166.666 222.412C166.666 222.09 166.574 221.825 166.389 221.62C166.208 221.414 165.962 221.244 165.65 221.109C165.341 220.974 164.992 220.855 164.601 220.752L163.314 220.401C162.441 220.163 161.749 219.814 161.239 219.353C160.731 218.892 160.478 218.282 160.478 217.522C160.478 216.895 160.648 216.347 160.989 215.878C161.329 215.41 161.79 215.046 162.372 214.788C162.954 214.525 163.61 214.394 164.341 214.394C165.079 214.394 165.73 214.523 166.294 214.782C166.861 215.041 167.308 215.398 167.634 215.852C167.961 216.302 168.131 216.82 168.145 217.405H166.56ZM173.904 225.589C173.173 225.589 172.52 225.463 171.946 225.211C171.375 224.959 170.922 224.61 170.589 224.163C170.259 223.713 170.082 223.191 170.057 222.599H171.728C171.749 222.921 171.857 223.202 172.052 223.439C172.251 223.674 172.51 223.854 172.829 223.982C173.148 224.11 173.503 224.174 173.893 224.174C174.322 224.174 174.702 224.099 175.032 223.95C175.365 223.801 175.626 223.594 175.814 223.328C176.002 223.058 176.096 222.748 176.096 222.396C176.096 222.031 176.002 221.71 175.814 221.433C175.63 221.153 175.358 220.933 175 220.774C174.645 220.614 174.216 220.534 173.712 220.534H172.792V219.193H173.712C174.117 219.193 174.471 219.121 174.776 218.975C175.085 218.83 175.326 218.627 175.5 218.369C175.674 218.106 175.761 217.799 175.761 217.448C175.761 217.111 175.685 216.818 175.532 216.57C175.383 216.318 175.17 216.121 174.894 215.979C174.62 215.838 174.298 215.767 173.925 215.767C173.57 215.767 173.239 215.832 172.93 215.963C172.625 216.091 172.377 216.276 172.185 216.517C171.994 216.755 171.891 217.04 171.877 217.374H170.286C170.303 216.785 170.477 216.267 170.807 215.82C171.14 215.373 171.58 215.023 172.127 214.772C172.673 214.52 173.279 214.394 173.946 214.394C174.645 214.394 175.248 214.53 175.755 214.803C176.266 215.073 176.66 215.433 176.937 215.884C177.217 216.334 177.355 216.827 177.352 217.363C177.355 217.973 177.185 218.491 176.841 218.917C176.5 219.342 176.046 219.628 175.479 219.773V219.858C176.202 219.968 176.763 220.256 177.16 220.72C177.561 221.185 177.76 221.762 177.756 222.45C177.76 223.049 177.593 223.587 177.256 224.062C176.923 224.537 176.467 224.912 175.889 225.185C175.31 225.454 174.649 225.589 173.904 225.589ZM181.537 223.95L181.457 224.53C181.404 224.956 181.313 225.399 181.186 225.86C181.061 226.325 180.932 226.756 180.797 227.153C180.666 227.551 180.558 227.866 180.473 228.101H179.344C179.391 227.881 179.454 227.583 179.536 227.207C179.618 226.834 179.697 226.417 179.775 225.956C179.854 225.495 179.912 225.025 179.951 224.546L180.004 223.95H181.537ZM183.762 225.44V224.248L187.45 220.428C187.843 220.013 188.168 219.649 188.423 219.337C188.682 219.021 188.876 218.721 189.003 218.438C189.131 218.154 189.195 217.852 189.195 217.533C189.195 217.171 189.11 216.859 188.939 216.597C188.769 216.331 188.537 216.127 188.242 215.985C187.948 215.839 187.616 215.767 187.247 215.767C186.857 215.767 186.517 215.846 186.226 216.006C185.935 216.166 185.711 216.391 185.555 216.682C185.399 216.973 185.321 217.313 185.321 217.703H183.752C183.752 217.04 183.904 216.46 184.209 215.963C184.514 215.467 184.933 215.082 185.465 214.809C185.997 214.532 186.602 214.394 187.279 214.394C187.964 214.394 188.567 214.53 189.088 214.803C189.613 215.073 190.023 215.442 190.318 215.91C190.612 216.375 190.759 216.9 190.759 217.485C190.759 217.89 190.683 218.285 190.53 218.672C190.381 219.058 190.121 219.489 189.748 219.965C189.376 220.437 188.858 221.009 188.195 221.683L186.029 223.95V224.03H190.935V225.44H183.762ZM192.489 223.312V221.981L197.198 214.543H198.246V216.501H197.581L194.213 221.832V221.918H200.667V223.312H192.489ZM197.655 225.44V222.907L197.666 222.301V214.543H199.225V225.44H197.655ZM203.181 225.541C202.89 225.541 202.64 225.438 202.431 225.233C202.221 225.023 202.117 224.771 202.117 224.477C202.117 224.186 202.221 223.938 202.431 223.732C202.64 223.523 202.89 223.418 203.181 223.418C203.472 223.418 203.722 223.523 203.931 223.732C204.141 223.938 204.245 224.186 204.245 224.477C204.245 224.672 204.196 224.851 204.096 225.014C204 225.174 203.873 225.302 203.713 225.397C203.553 225.493 203.376 225.541 203.181 225.541ZM209.754 225.621C208.913 225.617 208.195 225.396 207.599 224.956C207.003 224.516 206.547 223.876 206.231 223.035C205.916 222.194 205.758 221.182 205.758 219.997C205.758 218.815 205.916 217.806 206.231 216.969C206.55 216.132 207.008 215.493 207.604 215.054C208.204 214.614 208.92 214.394 209.754 214.394C210.587 214.394 211.302 214.615 211.898 215.059C212.494 215.499 212.95 216.137 213.266 216.974C213.585 217.808 213.744 218.815 213.744 219.997C213.744 221.185 213.587 222.2 213.271 223.04C212.955 223.877 212.499 224.518 211.903 224.961C211.307 225.401 210.591 225.621 209.754 225.621ZM209.754 224.2C210.492 224.2 211.068 223.84 211.483 223.12C211.902 222.4 212.111 221.359 212.111 219.997C212.111 219.092 212.015 218.328 211.824 217.703C211.636 217.076 211.364 216.6 211.009 216.277C210.658 215.951 210.24 215.788 209.754 215.788C209.019 215.788 208.443 216.15 208.024 216.873C207.606 217.597 207.395 218.638 207.391 219.997C207.391 220.905 207.485 221.673 207.673 222.301C207.865 222.925 208.136 223.399 208.487 223.721C208.838 224.041 209.261 224.2 209.754 224.2ZM219.426 225.621C218.585 225.617 217.867 225.396 217.271 224.956C216.675 224.516 216.219 223.876 215.903 223.035C215.588 222.194 215.43 221.182 215.43 219.997C215.43 218.815 215.588 217.806 215.903 216.969C216.223 216.132 216.68 215.493 217.276 215.054C217.876 214.614 218.592 214.394 219.426 214.394C220.259 214.394 220.974 214.615 221.57 215.059C222.166 215.499 222.622 216.137 222.938 216.974C223.257 217.808 223.417 218.815 223.417 219.997C223.417 221.185 223.259 222.2 222.943 223.04C222.627 223.877 222.171 224.518 221.575 224.961C220.98 225.401 220.263 225.621 219.426 225.621ZM219.426 224.2C220.164 224.2 220.74 223.84 221.155 223.12C221.574 222.4 221.783 221.359 221.783 219.997C221.783 219.092 221.687 218.328 221.496 217.703C221.308 217.076 221.036 216.6 220.682 216.277C220.33 215.951 219.912 215.788 219.426 215.788C218.692 215.788 218.115 216.15 217.697 216.873C217.278 217.597 217.067 218.638 217.063 219.997C217.063 220.905 217.157 221.673 217.345 222.301C217.537 222.925 217.808 223.399 218.159 223.721C218.511 224.041 218.933 224.2 219.426 224.2Z" fill="white"/>
<path d="M192.116 247.9L186.439 238.066L197.794 238.066L192.116 247.9Z" fill="#5945FD"/>
<path d="M323.29 34.7898H335.123C336.443 34.7898 337.514 35.8599 337.514 37.1804V41.1296C337.514 42.4504 336.443 43.5212 335.123 43.5212H323.29C321.969 43.521 320.899 42.4502 320.899 41.1296V37.1804C320.899 35.86 321.969 34.79 323.29 34.7898Z" stroke="black" stroke-opacity="0.4" stroke-width="0.845016"/>
<path d="M338.788 37.4653V40.8454C339.468 40.5591 339.91 39.8932 339.91 39.1554C339.91 38.4176 339.468 37.7516 338.788 37.4653" fill="black" fill-opacity="0.4"/>
<rect x="322.166" y="36.0569" width="14.078" height="6.19679" rx="1.12669" fill="black"/>
<path fill-rule="evenodd" clip-rule="evenodd" d="M309.471 36.2828C311.344 36.2829 313.144 37.0023 314.501 38.2925C314.604 38.3921 314.767 38.3909 314.868 38.2897L315.844 37.3038C315.895 37.2525 315.924 37.183 315.923 37.1107C315.923 37.0384 315.894 36.9692 315.842 36.9185C312.28 33.505 306.661 33.505 303.099 36.9185C303.048 36.9692 303.018 37.0383 303.018 37.1106C303.018 37.183 303.046 37.2525 303.097 37.3038L304.074 38.2897C304.175 38.391 304.338 38.3923 304.44 38.2925C305.797 37.0023 307.598 36.2828 309.471 36.2828ZM309.471 39.4902C310.5 39.4901 311.492 39.8725 312.255 40.5631C312.358 40.6611 312.52 40.6589 312.621 40.5583L313.596 39.5724C313.648 39.5207 313.676 39.4506 313.676 39.3777C313.675 39.3048 313.645 39.2352 313.592 39.1846C311.27 37.0244 307.674 37.0244 305.352 39.1846C305.299 39.2352 305.269 39.3048 305.269 39.3777C305.268 39.4506 305.296 39.5208 305.348 39.5724L306.323 40.5583C306.424 40.6589 306.586 40.6611 306.69 40.5631C307.452 39.873 308.443 39.4906 309.471 39.4902ZM311.426 41.6482C311.427 41.7213 311.398 41.7918 311.346 41.843L309.658 43.5463C309.609 43.5963 309.541 43.6245 309.471 43.6245C309.401 43.6245 309.333 43.5963 309.284 43.5463L307.596 41.843C307.544 41.7917 307.515 41.7212 307.516 41.6481C307.518 41.575 307.55 41.5058 307.604 41.4568C308.682 40.5451 310.26 40.5451 311.338 41.4568C311.392 41.5059 311.424 41.5751 311.426 41.6482Z" fill="black"/>
<path fill-rule="evenodd" clip-rule="evenodd" d="M297.661 34.6458H296.816C296.349 34.6458 295.971 35.0241 295.971 35.4908V42.8142C295.971 43.2809 296.349 43.6593 296.816 43.6593H297.661C298.127 43.6593 298.506 43.2809 298.506 42.8142V35.4908C298.506 35.0241 298.127 34.6458 297.661 34.6458ZM292.872 36.6175H293.717C294.184 36.6175 294.562 36.9958 294.562 37.4625V42.8142C294.562 43.2809 294.184 43.6593 293.717 43.6593H292.872C292.406 43.6593 292.027 43.2809 292.027 42.8142V37.4625C292.027 36.9958 292.406 36.6175 292.872 36.6175ZM289.774 38.5892H288.929C288.462 38.5892 288.084 38.9675 288.084 39.4342V42.8142C288.084 43.2809 288.462 43.6593 288.929 43.6593H289.774C290.24 43.6593 290.619 43.2809 290.619 42.8142V39.4342C290.619 38.9675 290.24 38.5892 289.774 38.5892ZM285.83 40.2792H284.985C284.519 40.2792 284.14 40.6575 284.14 41.1242V42.8142C284.14 43.2809 284.519 43.6593 284.985 43.6593H285.83C286.297 43.6593 286.675 43.2809 286.675 42.8142V41.1242C286.675 40.6575 286.297 40.2792 285.83 40.2792Z" fill="black"/>
<path d="M60.1313 34.7458C62.0375 34.7458 63.6962 36.1012 63.6962 39.3195V39.3319C63.6962 42.3398 62.3408 44.1222 60.0942 44.1222C58.4541 44.1222 57.2286 43.1505 56.9439 41.7827L56.9316 41.7147H58.5036L58.5221 41.7766C58.7573 42.4017 59.3082 42.8101 60.0942 42.8101C61.5115 42.8101 62.1118 41.4238 62.1799 39.7156C62.1799 39.6475 62.1861 39.5794 62.1861 39.5114H62.0623C61.7343 40.2169 60.9545 40.842 59.729 40.842C58.0146 40.842 56.814 39.5918 56.814 37.896V37.8836C56.814 36.0702 58.1941 34.7458 60.1313 34.7458ZM60.1251 39.6166C61.1339 39.6166 61.9076 38.8863 61.9076 37.8774V37.8651C61.9076 36.8439 61.1339 36.0455 60.1437 36.0455C59.1596 36.0455 58.3736 36.8315 58.3736 37.8279V37.8403C58.3736 38.8739 59.1101 39.6166 60.1251 39.6166ZM66.2695 38.1126C65.7063 38.1126 65.2854 37.6794 65.2854 37.1347C65.2854 36.5839 65.7063 36.1569 66.2695 36.1569C66.8389 36.1569 67.2535 36.5839 67.2535 37.1347C67.2535 37.6794 66.8389 38.1126 66.2695 38.1126ZM66.2695 42.7049C65.7063 42.7049 65.2854 42.2779 65.2854 41.727C65.2854 41.1762 65.7063 40.7492 66.2695 40.7492C66.8389 40.7492 67.2535 41.1762 67.2535 41.727C67.2535 42.2779 66.8389 42.7049 66.2695 42.7049ZM73.1751 43.8994V42.185H68.8056V40.8791C69.9629 38.8677 71.2317 36.8129 72.4448 34.9686H74.7038V40.8668H75.9045V42.185H74.7038V43.8994H73.1751ZM70.291 40.9039H73.1998V36.2435H73.107C72.191 37.6422 71.1574 39.2947 70.291 40.8111V40.9039ZM79.3689 43.8994V36.5406H79.2637L77.0418 38.1126V36.6087L79.3751 34.9686H80.9657V43.8994H79.3689Z" fill="black"/>
</g>
</g>
<rect x="136.047" y="27.8857" width="101.402" height="27.8855" rx="13.9428" fill="#030303"/>
<circle cx="220.972" cy="41.8285" r="8.87267" fill="#0E0B0F"/>
<circle cx="220.88" cy="41.7368" r="4.55591" fill="#161424"/>
<circle cx="220.88" cy="41.737" r="2.73354" fill="#0F0F2A"/>
<circle cx="220.88" cy="40.8257" r="0.911181" fill="#393752"/>
<circle cx="201.912" cy="41.5384" r="1.82236" fill="#30B94D"/>
<defs>
<filter id="filter0_f_1_114" x="0.000793517" y="142.808" width="2.53505" height="3.3801" filterUnits="userSpaceOnUse" color-interpolation-filters="sRGB">
<feFlood flood-opacity="0" result="BackgroundImageFix"/>
<feBlend mode="normal" in="SourceGraphic" in2="BackgroundImageFix" result="shape"/>
<feGaussianBlur stdDeviation="0.422508" result="effect1_foregroundBlur_1_114"/>
</filter>
<filter id="filter1_f_1_114" x="0.000793517" y="144.498" width="2.53505" height="23.6605" filterUnits="userSpaceOnUse" color-interpolation-filters="sRGB">
<feFlood flood-opacity="0" result="BackgroundImageFix"/>
<feBlend mode="normal" in="SourceGraphic" in2="BackgroundImageFix" result="shape"/>
<feGaussianBlur stdDeviation="0.422508" result="effect1_foregroundBlur_1_114"/>
</filter>
<filter id="filter2_f_1_114" x="0.000793517" y="195.199" width="2.53505" height="3.3801" filterUnits="userSpaceOnUse" color-interpolation-filters="sRGB">
<feFlood flood-opacity="0" result="BackgroundImageFix"/>
<feBlend mode="normal" in="SourceGraphic" in2="BackgroundImageFix" result="shape"/>
<feGaussianBlur stdDeviation="0.422508" result="effect1_foregroundBlur_1_114"/>
</filter>
<filter id="filter3_f_1_114" x="0.000793517" y="196.889" width="2.53505" height="50.701" filterUnits="userSpaceOnUse" color-interpolation-filters="sRGB">
<feFlood flood-opacity="0" result="BackgroundImageFix"/>
<feBlend mode="normal" in="SourceGraphic" in2="BackgroundImageFix" result="shape"/>
<feGaussianBlur stdDeviation="0.422508" result="effect1_foregroundBlur_1_114"/>
</filter>
<filter id="filter4_f_1_114" x="0.000793517" y="262.8" width="2.53505" height="3.3801" filterUnits="userSpaceOnUse" color-interpolation-filters="sRGB">
<feFlood flood-opacity="0" result="BackgroundImageFix"/>
<feBlend mode="normal" in="SourceGraphic" in2="BackgroundImageFix" result="shape"/>
<feGaussianBlur stdDeviation="0.422508" result="effect1_foregroundBlur_1_114"/>
</filter>
<filter id="filter5_f_1_114" x="0.000793517" y="264.49" width="2.53505" height="50.701" filterUnits="userSpaceOnUse" color-interpolation-filters="sRGB">
<feFlood flood-opacity="0" result="BackgroundImageFix"/>
<feBlend mode="normal" in="SourceGraphic" in2="BackgroundImageFix" result="shape"/>
<feGaussianBlur stdDeviation="0.422508" result="effect1_foregroundBlur_1_114"/>
</filter>
<filter id="filter6_f_1_114" x="380.257" y="213.789" width="2.53505" height="3.3801" filterUnits="userSpaceOnUse" color-interpolation-filters="sRGB">
<feFlood flood-opacity="0" result="BackgroundImageFix"/>
<feBlend mode="normal" in="SourceGraphic" in2="BackgroundImageFix" result="shape"/>
<feGaussianBlur stdDeviation="0.422508" result="effect1_foregroundBlur_1_114"/>
</filter>
<filter id="filter7_f_1_114" x="380.257" y="215.479" width="2.53505" height="80.2766" filterUnits="userSpaceOnUse" color-interpolation-filters="sRGB">
<feFlood flood-opacity="0" result="BackgroundImageFix"/>
<feBlend mode="normal" in="SourceGraphic" in2="BackgroundImageFix" result="shape"/>
<feGaussianBlur stdDeviation="0.422508" result="effect1_foregroundBlur_1_114"/>
</filter>
<filter id="filter8_f_1_114" x="-1.16177" y="-3.69682" width="385.394" height="786.499" filterUnits="userSpaceOnUse" color-interpolation-filters="sRGB">
<feFlood flood-opacity="0" result="BackgroundImageFix"/>
<feBlend mode="normal" in="SourceGraphic" in2="BackgroundImageFix" result="shape"/>
<feGaussianBlur stdDeviation="1.84841" result="effect1_foregroundBlur_1_114"/>
</filter>
<filter id="filter9_f_1_114" x="0.686639" y="-1.84841" width="381.697" height="782.802" filterUnits="userSpaceOnUse" color-interpolation-filters="sRGB">
<feFlood flood-opacity="0" result="BackgroundImageFix"/>
<feBlend mode="normal" in="SourceGraphic" in2="BackgroundImageFix" result="shape"/>
<feGaussianBlur stdDeviation="0.924205" result="effect1_foregroundBlur_1_114"/>
</filter>
<filter id="filter10_f_1_114" x="5.75674" y="3.22166" width="372.124" height="772.662" filterUnits="userSpaceOnUse" color-interpolation-filters="sRGB">
<feFlood flood-opacity="0" result="BackgroundImageFix"/>
<feBlend mode="normal" in="SourceGraphic" in2="BackgroundImageFix" result="shape"/>
<feGaussianBlur stdDeviation="0.924205" result="effect1_foregroundBlur_1_114"/>
</filter>
<filter id="filter11_f_1_114" x="1.98163" y="-0.554399" width="379.848" height="780.029" filterUnits="userSpaceOnUse" color-interpolation-filters="sRGB">
<feFlood flood-opacity="0" result="BackgroundImageFix"/>
<feBlend mode="normal" in="SourceGraphic" in2="BackgroundImageFix" result="shape"/>
<feGaussianBlur stdDeviation="3.23472" result="effect1_foregroundBlur_1_114"/>
</filter>
<linearGradient id="paint0_linear_1_114" x1="2.11275" y1="142.807" x2="2.11275" y2="145.565" gradientUnits="userSpaceOnUse">
<stop/>
<stop offset="1" stop-opacity="0"/>
</linearGradient>
<linearGradient id="paint1_linear_1_114" x1="4.2253" y1="142.807" x2="1.26774" y2="142.807" gradientUnits="userSpaceOnUse">
<stop/>
<stop offset="1" stop-color="#AEAEAE" stop-opacity="0"/>
</linearGradient>
<linearGradient id="paint2_linear_1_114" x1="2.11275" y1="164.522" x2="2.11275" y2="169.003" gradientUnits="userSpaceOnUse">
<stop stop-opacity="0"/>
<stop offset="1"/>
</linearGradient>
<linearGradient id="paint3_linear_1_114" x1="2.11275" y1="194.354" x2="2.11275" y2="197.734" gradientUnits="userSpaceOnUse">
<stop/>
<stop offset="1" stop-opacity="0"/>
</linearGradient>
<linearGradient id="paint4_linear_1_114" x1="4.2253" y1="194.354" x2="1.26774" y2="194.354" gradientUnits="userSpaceOnUse">
<stop/>
<stop offset="1" stop-color="#AEAEAE" stop-opacity="0"/>
</linearGradient>
<linearGradient id="paint5_linear_1_114" x1="2.11275" y1="243.787" x2="2.11275" y2="248.435" gradientUnits="userSpaceOnUse">
<stop stop-opacity="0"/>
<stop offset="1"/>
</linearGradient>
<linearGradient id="paint6_linear_1_114" x1="2.11275" y1="261.955" x2="2.11275" y2="265.335" gradientUnits="userSpaceOnUse">
<stop/>
<stop offset="1" stop-opacity="0"/>
</linearGradient>
<linearGradient id="paint7_linear_1_114" x1="4.2253" y1="261.955" x2="1.26774" y2="261.955" gradientUnits="userSpaceOnUse">
<stop/>
<stop offset="1" stop-color="#AEAEAE" stop-opacity="0"/>
</linearGradient>
<linearGradient id="paint8_linear_1_114" x1="2.11275" y1="311.388" x2="2.11275" y2="316.036" gradientUnits="userSpaceOnUse">
<stop stop-opacity="0"/>
<stop offset="1"/>
</linearGradient>
<linearGradient id="paint9_linear_1_114" x1="380.68" y1="212.944" x2="380.68" y2="216.324" gradientUnits="userSpaceOnUse">
<stop/>
<stop offset="1" stop-opacity="0"/>
</linearGradient>
<linearGradient id="paint10_linear_1_114" x1="378.568" y1="212.944" x2="381.525" y2="212.944" gradientUnits="userSpaceOnUse">
<stop/>
<stop offset="1" stop-color="#AEAEAE" stop-opacity="0"/>
</linearGradient>
<linearGradient id="paint11_linear_1_114" x1="380.68" y1="292.798" x2="380.68" y2="296.601" gradientUnits="userSpaceOnUse">
<stop stop-opacity="0"/>
<stop offset="1"/>
</linearGradient>
<radialGradient id="paint12_radial_1_114" cx="0" cy="0" r="1" gradientUnits="userSpaceOnUse" gradientTransform="translate(192.368 182.9) rotate(90) scale(314.23 350.57)">
<stop stop-color="#879194"/>
<stop offset="1"/>
</radialGradient>
<clipPath id="clip0_1_114">
<rect x="2.53505" width="378" height="779.105" rx="63.3762" fill="white"/>
</clipPath>
<clipPath id="clip1_1_114">
<rect x="8.45107" y="5.91504" width="366.91" height="767.09" rx="57.4611" fill="white"/>
</clipPath>
<clipPath id="clip2_1_114">
<rect x="16.9003" y="14.3652" width="349.837" height="750.375" rx="49.856" fill="white"/>
</clipPath>
<clipPath id="clip3_1_114">
<rect width="351.182" height="760.427" fill="white" transform="translate(16.0546 9.76147)"/>
</clipPath>
<clipPath id="clip4_1_114">
<rect width="22.476" height="22.476" fill="white" transform="translate(316.667 75.3157)"/>
</clipPath>
</defs>
</svg>
